<mxfile host="app.diagrams.net" modified="2020-04-18T18:02:35.065Z" agent="5.0 (Windows)" etag="tVHHav6Rq0RHrS8jNBLy" version="12.9.14" type="github">
  <diagram id="n0Ff1SVZaDRG90TbawuL" name="Page-1">
    <mxGraphModel dx="2031" dy="1099" grid="1" gridSize="10" guides="1" tooltips="1" connect="1" arrows="1" fold="1" page="1" pageScale="1" pageWidth="850" pageHeight="1100" math="0" shadow="0">
      <root>
        <mxCell id="0" />
        <mxCell id="1" parent="0" />
        <mxCell id="xtT6SuhmWLfj6SLLJ4-b-3" style="edgeStyle=orthogonalEdgeStyle;rounded=0;orthogonalLoop=1;jettySize=auto;html=1;" edge="1" parent="1" source="xtT6SuhmWLfj6SLLJ4-b-1" target="xtT6SuhmWLfj6SLLJ4-b-2">
          <mxGeometry relative="1" as="geometry" />
        </mxCell>
        <mxCell id="xtT6SuhmWLfj6SLLJ4-b-1" value="START" style="strokeWidth=2;html=1;shape=mxgraph.flowchart.start_1;whiteSpace=wrap;" vertex="1" parent="1">
          <mxGeometry x="40" y="280" width="100" height="60" as="geometry" />
        </mxCell>
        <mxCell id="xtT6SuhmWLfj6SLLJ4-b-11" value="" style="edgeStyle=orthogonalEdgeStyle;rounded=0;orthogonalLoop=1;jettySize=auto;html=1;" edge="1" parent="1" source="xtT6SuhmWLfj6SLLJ4-b-2" target="xtT6SuhmWLfj6SLLJ4-b-10">
          <mxGeometry relative="1" as="geometry" />
        </mxCell>
        <mxCell id="xtT6SuhmWLfj6SLLJ4-b-2" value="Splash Screen" style="verticalLabelPosition=bottom;verticalAlign=top;html=1;shadow=0;dashed=0;strokeWidth=1;shape=mxgraph.android.phone2;strokeColor=#c0c0c0;" vertex="1" parent="1">
          <mxGeometry x="250" y="115" width="200" height="390" as="geometry" />
        </mxCell>
        <mxCell id="xtT6SuhmWLfj6SLLJ4-b-26" value="" style="group" vertex="1" connectable="0" parent="1">
          <mxGeometry x="530" y="115" width="200" height="390" as="geometry" />
        </mxCell>
        <mxCell id="xtT6SuhmWLfj6SLLJ4-b-14" value="" style="strokeWidth=1;shadow=0;dashed=0;align=center;html=1;shape=mxgraph.mockup.forms.rrect;rSize=0;strokeColor=#999999;fillColor=#ffffff;" vertex="1" parent="xtT6SuhmWLfj6SLLJ4-b-26">
          <mxGeometry x="5" y="35" width="190" height="320" as="geometry" />
        </mxCell>
        <mxCell id="xtT6SuhmWLfj6SLLJ4-b-15" value="Sign In" style="strokeWidth=1;shadow=0;dashed=0;align=center;html=1;shape=mxgraph.mockup.forms.anchor;fontSize=12;fontColor=#666666;align=left;resizeWidth=1;spacingLeft=0;" vertex="1" parent="xtT6SuhmWLfj6SLLJ4-b-14">
          <mxGeometry width="95" height="20" relative="1" as="geometry">
            <mxPoint x="10" y="10" as="offset" />
          </mxGeometry>
        </mxCell>
        <mxCell id="xtT6SuhmWLfj6SLLJ4-b-16" value="" style="shape=line;strokeColor=#ddeeff;strokeWidth=2;html=1;resizeWidth=1;" vertex="1" parent="xtT6SuhmWLfj6SLLJ4-b-14">
          <mxGeometry width="171" height="10" relative="1" as="geometry">
            <mxPoint x="10" y="30" as="offset" />
          </mxGeometry>
        </mxCell>
        <mxCell id="xtT6SuhmWLfj6SLLJ4-b-17" value="User Name:" style="strokeWidth=1;shadow=0;dashed=0;align=center;html=1;shape=mxgraph.mockup.forms.anchor;fontSize=12;fontColor=#666666;align=left;resizeWidth=1;spacingLeft=0;" vertex="1" parent="xtT6SuhmWLfj6SLLJ4-b-14">
          <mxGeometry width="95" height="20" relative="1" as="geometry">
            <mxPoint x="10" y="40" as="offset" />
          </mxGeometry>
        </mxCell>
        <mxCell id="xtT6SuhmWLfj6SLLJ4-b-18" value="johndoe" style="strokeWidth=1;shadow=0;dashed=0;align=center;html=1;shape=mxgraph.mockup.forms.rrect;rSize=0;strokeColor=#999999;fontColor=#666666;align=left;spacingLeft=5;resizeWidth=1;" vertex="1" parent="xtT6SuhmWLfj6SLLJ4-b-14">
          <mxGeometry width="142.5" height="25" relative="1" as="geometry">
            <mxPoint x="10" y="60" as="offset" />
          </mxGeometry>
        </mxCell>
        <mxCell id="xtT6SuhmWLfj6SLLJ4-b-19" value="Password:" style="strokeWidth=1;shadow=0;dashed=0;align=center;html=1;shape=mxgraph.mockup.forms.anchor;fontSize=12;fontColor=#666666;align=left;resizeWidth=1;spacingLeft=0;" vertex="1" parent="xtT6SuhmWLfj6SLLJ4-b-14">
          <mxGeometry width="95" height="20" relative="1" as="geometry">
            <mxPoint x="10" y="95" as="offset" />
          </mxGeometry>
        </mxCell>
        <mxCell id="xtT6SuhmWLfj6SLLJ4-b-20" value="********" style="strokeWidth=1;shadow=0;dashed=0;align=center;html=1;shape=mxgraph.mockup.forms.rrect;rSize=0;strokeColor=#999999;fontColor=#666666;align=left;spacingLeft=5;resizeWidth=1;" vertex="1" parent="xtT6SuhmWLfj6SLLJ4-b-14">
          <mxGeometry width="142.5" height="25" relative="1" as="geometry">
            <mxPoint x="10" y="115" as="offset" />
          </mxGeometry>
        </mxCell>
        <mxCell id="xtT6SuhmWLfj6SLLJ4-b-21" value="SIGN IN" style="strokeWidth=1;shadow=0;dashed=0;align=center;html=1;shape=mxgraph.mockup.forms.rrect;rSize=5;strokeColor=none;fontColor=#ffffff;fillColor=#66bbff;fontSize=16;fontStyle=1;" vertex="1" parent="xtT6SuhmWLfj6SLLJ4-b-14">
          <mxGeometry y="1" width="80" height="30" relative="1" as="geometry">
            <mxPoint x="20" y="-150" as="offset" />
          </mxGeometry>
        </mxCell>
        <mxCell id="xtT6SuhmWLfj6SLLJ4-b-22" value="Forgot Password?" style="strokeWidth=1;shadow=0;dashed=0;align=center;html=1;shape=mxgraph.mockup.forms.anchor;fontSize=12;fontColor=#9999ff;align=left;spacingLeft=0;fontStyle=4;resizeWidth=1;" vertex="1" parent="xtT6SuhmWLfj6SLLJ4-b-14">
          <mxGeometry y="1" width="142.5" height="20" relative="1" as="geometry">
            <mxPoint x="10" y="-110" as="offset" />
          </mxGeometry>
        </mxCell>
        <mxCell id="xtT6SuhmWLfj6SLLJ4-b-23" value="" style="shape=line;strokeColor=#ddeeff;strokeWidth=2;html=1;resizeWidth=1;" vertex="1" parent="xtT6SuhmWLfj6SLLJ4-b-14">
          <mxGeometry y="1" width="171" height="10" relative="1" as="geometry">
            <mxPoint x="10" y="-90" as="offset" />
          </mxGeometry>
        </mxCell>
        <mxCell id="xtT6SuhmWLfj6SLLJ4-b-24" value="New User" style="strokeWidth=1;shadow=0;dashed=0;align=center;html=1;shape=mxgraph.mockup.forms.anchor;fontSize=12;fontColor=#666666;align=left;spacingLeft=0;resizeWidth=1;" vertex="1" parent="xtT6SuhmWLfj6SLLJ4-b-14">
          <mxGeometry y="1" width="142.5" height="20" relative="1" as="geometry">
            <mxPoint x="10" y="-70" as="offset" />
          </mxGeometry>
        </mxCell>
        <mxCell id="xtT6SuhmWLfj6SLLJ4-b-25" value="SIGN UP" style="strokeWidth=1;shadow=0;dashed=0;align=center;html=1;shape=mxgraph.mockup.forms.rrect;rSize=5;strokeColor=none;fontColor=#ffffff;fillColor=#66bbff;fontSize=16;fontStyle=1;" vertex="1" parent="xtT6SuhmWLfj6SLLJ4-b-14">
          <mxGeometry y="1" width="80" height="30" relative="1" as="geometry">
            <mxPoint x="20" y="-50" as="offset" />
          </mxGeometry>
        </mxCell>
        <mxCell id="xtT6SuhmWLfj6SLLJ4-b-10" value="&lt;div&gt;Auth Control&lt;/div&gt;" style="verticalLabelPosition=bottom;verticalAlign=top;html=1;shadow=0;dashed=0;strokeWidth=1;shape=mxgraph.android.phone2;strokeColor=#c0c0c0;" vertex="1" parent="xtT6SuhmWLfj6SLLJ4-b-26">
          <mxGeometry width="200" height="390" as="geometry" />
        </mxCell>
      </root>
    </mxGraphModel>
  </diagram>
</mxfile>
